<svg width="95" height="103" viewBox="0 0 95 103" fill="none" xmlns="http://www.w3.org/2000/svg">
<path d="M41.2786 0.0105983C45.3409 0.00742278 47.7988 -0.248115 51.3185 1.94826C51.5532 2.09468 53.1635 2.53475 53.559 2.67191C55.5209 3.35764 57.3047 4.47338 58.7799 5.93745C62.6506 9.79504 62.4682 13.2826 62.4653 18.2376L77.124 18.2496L77.1337 20.0806L81.3985 20.0738L90.7379 73.8323L93.6964 90.8741C94.0616 92.9329 94.3739 95.0208 94.7805 97.069C93.0887 97.4835 91.0484 98.1248 89.3495 98.6091L79.8205 101.319C78.5582 101.684 74.8597 102.839 73.7315 102.979C72.7259 103.105 68.6381 102.63 67.4066 102.516L55.259 101.427L0 96.5115C0.190088 95.4768 0.327604 93.8273 0.448889 92.7194L1.2432 85.4379L3.92348 61.0225L6.99531 33.1792C7.5325 28.3695 8.22801 23.0416 8.59999 18.2497C10.9489 18.1961 13.4845 18.2395 15.8464 18.2385L29.5413 18.2342C29.3525 12.9485 29.1765 8.11547 32.9738 3.95675C35.1829 1.53739 38.0095 0.165226 41.2786 0.0105983Z" fill="#222222"/>
<path d="M56.991 21.8708L71.6353 21.8604L71.6348 82.0473L71.6322 99.2222C68.9894 99.0758 66.2203 98.7776 63.5742 98.5342L51.3727 97.4404L4.05377 93.2126C4.20752 91.4255 4.4732 89.4911 4.66391 87.6776L6.54158 70.7326L9.97286 39.3541C10.5902 33.7054 11.4446 27.4901 11.8592 21.8634C17.1173 21.9195 22.3863 21.8288 27.6455 21.8779C28.2741 21.8838 28.908 21.8936 29.5357 21.8621C29.5326 23.4508 29.3889 29.0471 29.6778 30.2524C29.8573 31.0237 30.2335 31.7356 30.7695 32.3185C32.5581 34.2513 35.5127 34.1766 37.368 32.3505C37.9251 31.8009 38.317 31.106 38.4991 30.3449C38.7527 29.2926 38.6452 23.3159 38.6502 21.875L47.8357 21.8708L47.822 27.2955C47.8193 28.4192 47.7429 30.208 48.009 31.2478C48.2011 32.0017 48.5828 32.6939 49.1177 33.2589C50.6971 34.9416 53.4471 35.1114 55.2397 33.6732C56.7525 32.4595 57.0382 30.7198 56.9897 28.8921C56.9736 28.2862 56.9884 27.6425 56.9868 27.0315C56.9735 25.3113 56.9749 23.5911 56.991 21.8708Z" fill="#F5A200"/>
<path d="M78.0157 23.5679C78.3165 23.6982 78.3545 24.0568 78.4162 24.3564C78.8925 26.6872 79.2665 29.0414 79.6652 31.3871L81.4611 41.7447L86.6883 71.823C87.7971 78.4456 88.957 85.0594 90.1681 91.6644C89.7456 91.5286 84.7698 86.8465 84.0386 86.2176C83.5834 85.8259 82.659 84.7701 82.5382 84.0812C82.352 83.0183 82.3185 81.906 82.2453 80.8148L81.9092 76.1169L80.7114 59.9865L78.9031 35.5468C78.7302 33.0977 78.545 30.6494 78.3465 28.2022C78.2319 26.7759 78.036 24.972 78.0157 23.5679Z" fill="#F5A200"/>
<path d="M40.7098 3.70304C41.8025 3.54065 45.2501 3.60222 46.375 3.80139C48.5023 4.17795 50.517 5.77803 51.7089 7.56195C52.4652 8.69497 52.9715 9.9761 53.1941 11.3201C53.3891 12.5692 53.3248 14.4227 53.3226 15.7203L53.3137 22.4481C53.3166 24.8123 53.3808 28.0471 53.2541 30.468C53.2254 31.0149 51.6338 31.2945 51.5325 30.3617C51.4019 29.16 51.4516 27.9062 51.4522 26.6833L51.4631 17.8518C51.466 16.2667 51.5231 14.6164 51.4179 13.0404C51.2136 9.98078 49.1645 7.72054 46.3633 6.74162C44.689 6.25444 41.6322 6.25171 39.9825 6.79119C37.8648 7.49209 36.1894 9.13178 35.4429 11.2339C34.8159 13.0211 35.0121 17.2012 35.0146 19.269L35.0225 26.6175C35.0233 27.5023 35.1371 28.9493 34.8108 29.7453C34.5743 30.3221 33.259 30.2011 33.2082 29.3251C33.0737 27.009 33.1463 24.6651 33.1457 22.3413L33.1352 15.9472C33.1335 14.5962 33.0804 12.6513 33.3019 11.3676C33.5524 9.84132 34.1577 8.39516 35.0689 7.14543C36.5033 5.20557 38.332 4.05137 40.7098 3.70304Z" fill="#F5A200"/>
<path d="M75.2487 40.1924C75.3078 39.8196 75.3219 39.7733 75.5115 39.4478C75.9914 43.44 76.1916 48.3199 76.4862 52.3671L78.1128 74.3918L78.6755 81.9642C78.7214 82.5764 78.9322 84.6819 78.8758 85.1273C78.672 85.3329 78.3783 85.5234 78.4012 85.8348C78.4594 86.6198 77.7317 87.7559 77.363 88.4969C76.6618 89.9126 75.9499 91.3248 75.2284 92.7308C75.3263 89.2378 75.306 85.6504 75.2796 82.1521C75.1746 68.1778 75.4198 54.1629 75.2487 40.1924Z" fill="#F5A200"/>
<path d="M81.2803 88.7341C81.7893 88.9167 87.3808 94.2206 88.4613 95.0507C86.826 95.6434 83.8842 96.3782 82.1192 96.8836C80.2748 97.4587 78.2345 97.9695 76.3557 98.519C77.0711 97.2991 77.7538 95.8348 78.3977 94.555C79.3865 92.6294 80.3471 90.6888 81.2803 88.7341Z" fill="#F5A200"/>
<path d="M45.6087 10.355C45.9323 10.3659 46.5619 10.879 46.7882 11.1032C48.2181 12.5192 47.8427 16.1696 47.8268 18.2455L45.9205 18.2388L43.6941 18.2378C43.684 17.0861 43.6888 15.8918 43.6681 14.7427C43.633 12.7887 43.8546 11.4795 45.6087 10.355Z" fill="#F5A200"/>
<path d="M56.3016 8.66602C56.4048 8.72397 56.5075 8.79365 56.5873 8.88204C59.1576 11.7316 58.836 14.7917 58.8353 18.247L56.9915 18.2414C56.9246 14.296 57.3103 12.5728 56.3016 8.66602Z" fill="#F5A200"/>
<path d="M40.5304 10.4424L40.6225 10.4739C40.7246 10.8392 40.1831 12.0445 40.1397 12.6849C40.0151 14.5213 40.0622 16.424 40.0659 18.2653C39.6752 18.2426 39.2198 18.2436 38.8232 18.2347L38.7431 18.2152C38.509 17.8928 38.6676 13.7644 38.7249 13.0195C38.8053 11.9724 39.7395 11.0562 40.5304 10.4424Z" fill="#F5A200"/>
<path d="M75.2487 40.1925C75.2248 39.108 75.1516 37.6818 75.2372 36.6365C75.3642 37.4336 75.5706 38.654 75.5115 39.4478C75.3219 39.7734 75.3078 39.8197 75.2487 40.1925Z" fill="#F5A200"/>
<path d="M22.0397 66.0657L22.7082 53.2655L25.5547 53.4141L25.0169 63.7123L30.6918 64.0086L30.5611 66.5107L22.0397 66.0657ZM34.8659 66.9354C32.0012 66.7859 30.0347 64.7561 30.1748 62.0727C30.3121 59.4438 32.4641 57.5746 35.1474 57.7147C37.7401 57.8501 39.4928 59.796 39.3593 62.3524C39.3423 62.6787 39.289 63.0032 39.1747 63.4517L32.8643 63.1404C33.1032 64.1346 33.8354 64.7364 34.9595 64.7951C35.8297 64.8405 36.552 64.5874 37.11 63.9984L38.5534 65.6009C37.6301 66.5708 36.3526 67.0131 34.8659 66.9354ZM35.0548 59.8369C34.0395 59.7839 33.2849 60.3081 32.9637 61.2367L36.8083 61.4192C36.6419 60.4288 36.052 59.889 35.0548 59.8369ZM40.1225 67.01L40.4596 60.5555L38.5196 60.4542L38.6427 58.0972L40.5826 58.1985L40.6224 57.437C40.7341 55.2976 42.3251 53.7263 44.7184 53.8513C45.9331 53.9147 46.7816 54.3772 47.4337 55.1202L45.6022 56.7699C45.3788 56.5219 45.0963 56.3617 44.6793 56.3399C43.9178 56.3001 43.4409 56.7297 43.4011 57.4912L43.3566 58.3434L45.8949 58.4759L45.7718 60.8329L43.2336 60.7003L42.8965 67.1548L40.1225 67.01ZM46.3503 67.3352L46.6874 60.8807L44.693 60.7765L44.8161 58.4196L46.8105 58.5237L47.0008 54.8795L49.7747 55.0243L49.5844 58.6686L51.5788 58.7727L51.4557 61.1297L49.4614 61.0255L49.1243 67.48L46.3503 67.3352ZM51.3177 71.3215L53.5374 67.1106L50.6122 58.7222L53.6037 58.8785L55.0821 64.337L57.1573 59.064L60.1489 59.2202L55.9157 67.8711L54.1642 71.4701L51.3177 71.3215Z" fill="#222222"/>
</svg>
