<svg width="205" height="85" viewBox="0 0 205 85" fill="none" xmlns="http://www.w3.org/2000/svg">
<path d="M146.667 0C149.615 0.06225 152.8 0.33475 155.602 1.2715C166.735 4.99375 170.907 8.67874 176.327 18.454C178.635 13.8965 181.675 9.78875 186.852 8.50275C190.497 7.59925 194.355 8.18101 197.572 10.1195C200.835 12.1283 203.187 15.7853 204.085 19.4608C205.175 23.6978 203.54 27.0635 201.5 30.5845C193.845 43.8088 182.322 54.0815 170.552 63.5667C168.107 65.5367 164.657 67.0768 161.92 68.7793C151.852 75.0393 140.5 78.8518 129 81.5168C97.6493 88.5768 64.7798 83.0493 37.4638 66.1218C33.2268 63.6243 24.914 56.1415 20.5205 52.445C13.281 45.582 1.60979 32.8492 0.102294 22.8197C-0.922456 16.0017 5.92353 8.34775 12.9518 8.168C24.491 7.87275 26.1065 16.518 32.3368 24.105C35.6055 28.0855 39.7463 32.0657 43.5123 35.618C61.1215 50.7517 84.7285 57.8143 107.768 56.6868C111.217 56.5175 112.317 55.3365 112.532 51.6015C113.027 42.9175 111.802 33.8925 113.69 25.3152C114.942 19.6207 119.202 14.4175 122.715 9.89301C128.787 2.78626 137.665 0.4605 146.667 0Z" fill="#232323"/>
<path d="M145.767 18.984C147.09 18.9005 148.42 18.9993 149.715 19.2776C153.472 20.0833 156.747 22.3635 158.807 25.6065C161.912 30.517 161.337 38.9913 160.55 44.6573C159.985 48.725 155.275 50.8775 151.81 53.0598L151.897 39.0021C151.915 35.4858 153.332 22.1733 144.315 27.1961C142.87 28.0011 142.455 30.7013 142.365 32.3466C142.38 37.0906 143.067 51.7506 141.722 55.4286C141.402 56.3021 141.007 57.1441 140.295 57.7691C138.212 59.5966 132.302 61.319 129.445 62.669C130.542 59.2415 131.27 56.1698 131.502 52.5713C132.352 39.272 126.74 21.1498 145.767 18.984Z" fill="#F6A200"/>
</svg>
