<svg width="55" height="47" viewBox="0 0 55 47" fill="none" xmlns="http://www.w3.org/2000/svg">
<path d="M27.8328 0.0399894C30.1392 -0.0893742 31.5374 0.0792088 33.7257 0.780305C37.0494 1.84519 40.1435 4.37887 41.7053 7.53048C48.5476 8.02494 54.8119 12.8071 54.9934 20.0397C55.3638 34.8025 40.1043 36.321 28.9641 36.5518C28.979 38.8438 29.4569 40.8996 30.1339 43.0748C30.2718 43.7853 31.3622 45.6201 30.7767 46.2066C30.2405 46.7435 28.1641 46.5556 27.4179 46.5483C25.5979 46.5479 23.432 46.5999 21.6402 46.5209C21.5469 46.4449 21.4577 46.3639 21.373 46.2784C20.9426 45.8459 21.0446 45.4303 21.235 44.8982C22.227 42.125 22.7458 39.4592 22.7422 36.5131C16.7715 36.6114 8.82783 35.0894 4.37533 30.9285C-1.2101 25.7087 -1.48347 16.1043 3.76006 10.5334C7.09799 6.98709 11.4239 6.0352 16.1021 5.93472C16.2105 5.78277 16.3256 5.63575 16.4471 5.49407C19.1067 2.41309 23.8067 0.337047 27.8328 0.0399894Z" fill="#222222"/>
<path d="M27.8963 6.33558C30.8213 5.91737 32.7773 6.93195 34.9946 8.63756C33.2722 9.35474 31.6802 10.3516 30.2829 11.5878C25.2253 16.1491 23.1462 23.6618 22.8066 30.2732C18.4314 30.2747 13.262 29.5427 9.56093 27.1051C8.10912 26.0903 7.23519 24.8613 6.65744 23.1814C5.93903 21.047 6.08701 18.7159 7.06969 16.6896C8.26333 14.2747 9.98783 13.2999 12.4132 12.4712C12.1597 13.7424 12.1224 15.8134 12.2054 17.0957C12.2345 17.5446 12.3355 18.6185 12.7346 18.882C13.2444 19.2187 15.005 19.0352 15.6683 19.06C15.9255 19.0695 16.2704 18.9383 16.3774 18.6993C16.7099 17.9413 16.8685 17.1039 17.1266 16.3143C18.7607 11.3176 22.3601 6.90026 27.8963 6.33558Z" fill="#E8A838"/>
<path d="M40.1032 13.7962C42.0243 13.5052 44.4749 14.3757 46.1073 15.4629C49.4309 17.6762 49.5443 22.2781 47.3316 25.3587C45.1601 28.382 40.7916 29.1868 37.255 29.7367C35.0801 30.0366 31.2162 30.259 29.0344 30.2751C29.1923 29.2399 29.2739 28.1686 29.4261 27.1245C30.3123 21.0423 33.2286 14.5044 40.1032 13.7962Z" fill="#E8A838"/>
</svg>
